<svg width="24" height="24" viewBox="0 0 24 24" fill="none" xmlns="http://www.w3.org/2000/svg">
<path d="M17.8032 16.8612C17.9291 16.9857 18 17.1557 18 17.333C18 17.5102 17.9291 17.6802 17.8032 17.8048C17.6782 17.9298 17.5088 18 17.3322 18C17.1555 18 16.9861 17.9298 16.8612 17.8048L12 12.9356L7.13885 17.8048C7.01387 17.9298 6.84446 18 6.66781 18C6.49117 18 6.32176 17.9298 6.19678 17.8048C6.07092 17.6802 6 17.5102 6 17.333C6 17.1557 6.07092 16.9858 6.19678 16.8612L11.0579 11.992L6.19678 7.12277C6.03828 6.95239 5.97986 6.71147 6.04275 6.48725C6.10553 6.26302 6.28049 6.08777 6.50436 6.02487C6.72822 5.96189 6.96874 6.0204 7.13884 6.17916L12 11.0484L16.8611 6.17916C17.0312 6.0204 17.2718 5.96189 17.4956 6.02487C17.7195 6.08776 17.8944 6.26301 17.9572 6.48725C18.0201 6.71148 17.9617 6.9524 17.8032 7.12277L12.942 11.992L17.8032 16.8612Z" fill="#747474"/>
</svg>
