<svg width="18" height="16" viewBox="0 0 18 16" fill="none" xmlns="http://www.w3.org/2000/svg">
<path d="M2.52384 11.1136C4.52448 12.8051 6.60589 13.6999 8.53926 13.6999C9.21894 13.6965 9.89461 13.5957 10.5457 13.4003C10.7492 13.3404 10.8657 13.1268 10.8059 12.9232C10.7459 12.7197 10.5323 12.6032 10.3287 12.663C9.7481 12.8378 9.14556 12.9283 8.53929 12.9318C4.82409 12.9318 1.63861 9.28382 0.868898 8.32382C1.60751 7.41419 2.44096 6.58584 3.35529 5.85285C3.52123 5.71812 3.54654 5.47437 3.41194 5.30843C3.27721 5.14249 3.0336 5.11718 2.86752 5.25178C1.82517 6.08427 0.887113 7.03971 0.0740288 8.09722C-0.0246763 8.23222 -0.0246763 8.41543 0.0740288 8.55044C0.795914 9.49048 1.61729 10.3499 2.52384 11.1136Z" fill="black"/>
<path d="M17.0044 8.09714C16.2825 7.15709 15.4611 6.29769 14.5546 5.53401C12.552 3.84249 10.4725 2.9477 8.53917 2.9477C7.21005 2.97636 5.90922 3.33677 4.75472 3.99609L2.87113 2.1125C2.72113 1.9625 2.47777 1.9625 2.32777 2.1125C2.17777 2.2625 2.17777 2.50586 2.32777 2.65586L14.2067 14.5348C14.3567 14.6848 14.6001 14.6848 14.7501 14.5348C14.9001 14.3848 14.9001 14.1415 14.7501 13.9915L13.0106 12.252V12.2519C14.5405 11.2514 15.8906 9.99986 17.0042 8.5504C17.1029 8.4154 17.1029 8.23218 17.0042 8.09717L17.0044 8.09714ZM10.5282 9.76949L7.09139 6.33269C7.72835 5.86743 8.54973 5.73592 9.3 5.97914C10.0504 6.22222 10.6386 6.81043 10.8817 7.5607C11.1248 8.31111 10.9933 9.1325 10.5281 9.76945L10.5282 9.76949ZM12.4482 11.6895L11.0773 10.3205C11.7326 9.4853 11.9355 8.38119 11.6201 7.36747C11.3046 6.35378 10.511 5.55982 9.49749 5.24388C8.48393 4.92808 7.3798 5.13044 6.54422 5.78549L5.32307 4.56434C6.31266 4.03051 7.41504 3.73973 8.5391 3.71577C12.2543 3.71577 15.4398 7.36377 16.2074 8.32376C15.1458 9.64243 13.8776 10.7804 12.4518 11.6934L12.4482 11.6895Z" fill="black"/>
<path d="M8.92328 11.1691C8.92328 11.0673 8.88283 10.9696 8.81078 10.8977C8.73886 10.8256 8.64109 10.7852 8.5393 10.7852C7.88681 10.7841 7.26137 10.5244 6.79999 10.063C6.33861 9.60167 6.07893 8.97622 6.07787 8.32372C6.07787 8.11158 5.90604 7.93976 5.6939 7.93976C5.48189 7.93976 5.30994 8.11159 5.30994 8.32372C5.31087 9.17994 5.65145 10.0008 6.25694 10.6061C6.86229 11.2116 7.68316 11.5522 8.53934 11.5531C8.64113 11.5531 8.73889 11.5127 8.81081 11.4406C8.88287 11.3687 8.92331 11.2709 8.92331 11.1692L8.92328 11.1691Z" fill="black"/>
</svg>
