<svg width="32" height="32" viewBox="0 0 32 32" fill="none" xmlns="http://www.w3.org/2000/svg">
<path d="M6.52805 24.192C5.82108 24.192 5.24805 23.619 5.24805 22.912C5.24805 22.205 5.82108 21.632 6.52805 21.632H25.4721C26.179 21.632 26.7521 22.205 26.7521 22.912C26.7521 23.619 26.179 24.192 25.4721 24.192H6.52805ZM6.52805 17.28C5.82108 17.28 5.24805 16.707 5.24805 16C5.24805 15.293 5.82108 14.72 6.52805 14.72H25.4721C26.179 14.72 26.7521 15.293 26.7521 16C26.7521 16.707 26.179 17.28 25.4721 17.28H6.52805ZM6.52805 10.368C5.82108 10.368 5.24805 9.79496 5.24805 9.08799C5.24805 8.38101 5.82108 7.80799 6.52805 7.80799H25.4721C26.179 7.80799 26.7521 8.38101 26.7521 9.08799C26.7521 9.79496 26.179 10.368 25.4721 10.368H6.52805Z" fill="#F7533D"/>
</svg>
