<svg width="32" height="32" viewBox="0 0 32 32" fill="none" xmlns="http://www.w3.org/2000/svg">
<path d="M15.2108 25.2992C12.8556 25.2992 10.654 24.3776 8.98997 22.7136C8.78514 22.5088 8.32441 21.9713 8.29872 21.9201C8.14515 21.7408 7.83801 21.3056 7.83801 21.2801C5.58516 17.824 6.07156 13.1905 8.98997 10.2721C9.0155 10.2465 9.47641 9.81137 9.65552 9.68333L9.73231 14.3937C9.73231 14.7009 9.86034 15.0082 10.0907 15.2385C10.3211 15.4689 10.6027 15.5714 10.9355 15.5714C11.2426 15.5714 11.5499 15.4433 11.7548 15.213C11.9851 14.9826 12.0876 14.6753 12.0876 14.3682L11.9341 7.30259C11.9341 6.66259 11.3964 6.15063 10.7564 6.15063H3.84438C3.17882 6.15063 2.66669 6.68833 2.66669 7.32833C2.66669 7.63547 2.79472 7.94277 3.02508 8.17313C3.25544 8.40349 3.53703 8.53152 3.86988 8.53152H7.40272L7.14665 8.81313C5.14985 10.8867 4.04896 13.6259 4.04896 16.4931V16.5187C4.04896 18.6948 4.66341 20.7939 5.84091 22.6115C5.86645 22.637 6.22484 23.1747 6.42967 23.4308C6.48092 23.482 7.04411 24.1476 7.30002 24.4292C9.39931 26.5284 12.2152 27.706 15.2104 27.706C15.876 27.706 16.3881 27.1683 16.3881 26.5283C16.3883 25.8881 15.8763 25.2993 15.2106 25.2993L15.2108 25.2992Z" fill="black"/>
<path d="M29.7514 23.5328C29.5211 23.3024 29.2395 23.1744 28.9066 23.1744H25.374L25.63 22.8928C27.6268 20.8193 28.7277 18.08 28.7277 15.2128V15.1616C28.7277 12.9855 28.1133 10.8864 26.9358 9.06876C26.9102 9.04322 26.5261 8.50556 26.347 8.24946C26.2958 8.19821 25.7583 7.53266 25.4767 7.25106C23.3515 5.15214 20.561 4 17.5658 4C16.9003 4 16.3881 4.53769 16.3881 5.17769C16.3881 5.84325 16.9258 6.35538 17.5658 6.35538C19.921 6.35538 22.1226 7.27698 23.7866 8.94094C23.9914 9.14576 24.4522 9.68325 24.4779 9.73449C24.6314 9.91378 24.9386 10.3489 24.9386 10.3745C27.1914 13.8306 26.705 18.4641 23.7866 21.3825C23.7611 21.408 23.3002 21.8432 23.1211 21.9712L23.0187 17.2864C23.0187 16.9793 22.8907 16.672 22.6603 16.4672C22.43 16.2368 22.1227 16.1343 21.8155 16.1343C21.15 16.1598 20.6379 16.6975 20.6636 17.3375L20.8172 24.4031C20.8172 25.0431 21.3549 25.5551 21.9949 25.5551H28.9069C29.5724 25.5551 30.0846 25.0174 30.0846 24.3774C30.1099 24.0449 29.982 23.7377 29.7515 23.5329L29.7514 23.5328Z" fill="black"/>
</svg>
