<svg width="32" height="32" viewBox="0 0 32 32" fill="none" xmlns="http://www.w3.org/2000/svg">
<path d="M12.3547 22.2669C10.6096 22.2746 8.90136 21.7602 7.44652 20.789C5.99168 19.8176 4.85573 18.4331 4.18254 16.8106C3.50915 15.1883 3.32894 13.401 3.66458 11.6753C4.00007 9.9496 4.83649 8.36305 6.06746 7.11669C7.2986 5.87028 8.8692 5.02005 10.5802 4.67378C12.2913 4.32769 14.0657 4.50098 15.6788 5.17183C17.2919 5.84268 18.6713 6.98093 19.6419 8.44233C20.6126 9.90372 21.131 11.6227 21.1315 13.3813C21.1345 15.7316 20.2121 17.9875 18.5667 19.6532C16.9212 21.3192 14.6871 22.259 12.3545 22.2671L12.3547 22.2669ZM12.3547 7.08526C10.696 7.07419 9.10138 7.72851 7.92181 8.90381C6.74256 10.0791 6.07557 11.6789 6.06807 13.3503C6.06059 15.0217 6.71309 16.6273 7.88182 17.8136C9.05055 18.9995 10.6395 19.6682 12.298 19.6724C13.9565 19.6764 15.5486 19.0155 16.7231 17.8354C17.8976 16.6553 18.5579 15.0527 18.5585 13.3815C18.5622 11.7185 17.9109 10.1218 16.7478 8.94165C15.5846 7.76182 14.0046 7.09516 12.354 7.08777L12.3547 7.08526Z" fill="black"/>
<path d="M26.6833 27.5L21.1315 21.9379L22.9486 20.1022L28.5 25.6643L26.6833 27.5Z" fill="black"/>
</svg>
