<svg width="32" height="26" viewBox="0 0 32 26" fill="none" xmlns="http://www.w3.org/2000/svg">
<g clip-path="url(#clip0_8_8)">
<path d="M12.9304 19.7732C10.9733 19.7818 9.05758 19.2093 7.42599 18.1284C5.7944 17.0474 4.52043 15.5065 3.76546 13.7007C3.01026 11.8952 2.80816 9.90609 3.18457 7.98554C3.56082 6.065 4.49886 4.29928 5.87938 2.91217C7.26009 1.52502 9.02151 0.578779 10.9404 0.193408C12.8594 -0.191772 14.8493 0.00108791 16.6584 0.747694C18.4675 1.4943 20.0144 2.76109 21.103 4.38751C22.1916 6.01393 22.773 7.92698 22.7736 9.8842C22.7769 12.4999 21.7425 15.0106 19.8971 16.8643C18.0518 18.7184 15.5462 19.7645 12.9303 19.7734L12.9304 19.7732ZM12.9304 2.8772C11.0703 2.86488 9.2819 3.59309 7.95902 4.90111C6.6365 6.20913 5.88848 7.98952 5.88007 9.84968C5.87167 11.7098 6.60345 13.4968 7.91417 14.817C9.22489 16.1368 11.0068 16.8811 12.8669 16.8858C14.7269 16.8902 16.5124 16.1547 17.8296 14.8413C19.1467 13.5279 19.8873 11.7443 19.888 9.88447C19.8921 8.03359 19.1617 6.25663 17.8573 4.94321C16.5528 3.63016 14.7808 2.88822 12.9297 2.87999L12.9304 2.8772Z" fill="#F7533D"/>
<path d="M26.6497 25.5972L20.4235 19.4071L22.4613 17.364L28.6871 23.5542L26.6497 25.5972Z" fill="#F7533D"/>
</g>
<defs>
<clipPath id="clip0_8_8">
<rect width="31.6872" height="25.5972" fill="white"/>
</clipPath>
</defs>
</svg>
